<svg xmlns="http://www.w3.org/2000/svg" width="816" height="1056" clip-rule="evenodd" fill-rule="evenodd" image-rendering="optimizeQuality" shape-rendering="geometricPrecision" text-rendering="geometricPrecision" viewBox="0 0 215.9 279.4"><path d="M121.68 164.25c4.644-3.427 1.438 16.142-.995 22.444-2.985 8.07-5.417 13.93-9.618 22.112-5.086 9.729-.111 19.237.331 27.308.332 4.864-3.538 23.991-2.211 32.726 1.326 2.322 2.985-.332 3.648-6.302l1.327-8.845c1.548-.995 2.101 0 1.659 2.985l-.443 5.86c.996 3.096 2.654 3.428 5.639 1.658 1.216-3.758 5.418-9.95 2.985-13.378l-3.649-5.085c-1.547-9.287-1.437-18.02 1.106-25.982 3.648-6.302 8.181-15.478 11.83-21.116 2.432-15.7.774-23.549-.774-31.399-1.77-8.403 13.93-12.604 12.383-10.835-6.744 6.965-8.734 15.59-7.85 26.866.553 6.191-1.437 12.935-.663 19.127-8.071 7.518-21.67 25.982-6.191 32.615 2.432.995 2.985 1.216 2.763-2.653-1.99-8.624-.442-13.6 5.307-24.102 3.76-6.523 1.216-15.257 7.74-19.79 7.518-6.965 14.262-20.232 16.142-23.881.884-3.759 6.08-4.312 4.643-.553-6.855 17.026-18.906 28.524-21.56 33.942-1.547 2.986-3.095 5.97-3.206 9.508-.11 4.534-6.855 6.634-6.633 11.167.221 5.97 3.648 11.83-1.438 12.383 1.327 1.77 3.98 2.544 8.403-.22 2.322-1.88 1.658-5.418 2.543-8.624 1.77-6.634.995-11.388 3.317-18.353 1.658-4.975 4.312-9.95 9.176-12.714 2.211-1.216 4.091 1.326 1.99 3.98-3.98 4.644-8.07 8.734-9.95 14.705-1.327 4.422-.885 8.844-1.327 13.267-.331 3.427-5.086 10.06-7.408 11.83 2.433-1.327 8.514-1.106 11.72-11.61l1.659-10.945c.442-3.207 15.92-15.59 18.464-27.751 2.21-10.392 2.432-16.695 1.437-22.775 3.87-4.644 7.297-11.83 9.84-14.594 1.437-6.523.22-14.815 1.99-18.464 4.533-9.287 6.412-15.81 4.864-21.006-5.97-.332 2.543-3.096-.774-11.61-4.533-3.427-3.869-5.085 1.77-4.974 2.21 0 3.758-1.327 3.648-3.539l-5.639-2.984-1.216-3.87 2.543-3.207 3.87-7.075-7.629-.663 1.216-5.197c1.216-4.533 5.639-7.629 3.428-6.744-13.82 5.418-11.056.885-1.659-8.403l.11-3.759-10.613 4.975c5.638-13.377-9.066-26.092-24.876-34.494-4.423 2.543-2.985 10.282 3.206 12.935l9.73 8.403c2.763 2.543 2.1 8.292-.332 8.403-1.88-4.423-4.423-7.187-7.076-10.835-3.87-2.764-4.202-1.105-5.75-2.322-1.879-6.965-5.196-16.473-11.83-19.348-13.156-5.749-22.222-4.422-32.504-1.769l-9.619 2.543c-3.095.774-6.855-4.09-11.72-5.749l.554 8.292c-2.433.774-5.418 2.543-5.307 4.754l-11.388-.11 6.523 5.749C70.712 21.63 60.54 42.194 55.123 54.577c-5.86-.111-9.62-.664-15.81.663-2.543 2.1-2.986 4.201-4.976 5.639-3.538 2.763-5.306-.443-8.955-1.549-2.653-.774-1.99-.22.442 2.765.995 2.322 10.392 4.754 14.925.663 2.433-2.211 7.298 1.105 14.815-.885 3.317-.994 5.086-5.085 8.293-7.85.995 0 2.321.664 1.105 3.87-2.543 6.524-8.07 8.403-12.936 10.835L36.99 69.834c-6.965.552-9.619 0-12.715 1.769-5.417 3.206-4.643 4.422-1.879 2.874 5.97-3.206 10.392-4.754 15.92-.995 3.87 4.09 9.95 5.86 17.247 7.74 4.312.773 14.483-3.096 16.474-10.614.995-3.538-1.99-5.086.332-7.74 1.99-2.1 4.201-1.105 5.196 1.438-1.326 7.297-3.648 12.604-7.518 14.925-5.97 4.533-8.955 5.639-12.935 7.186-5.97 2.211-14.483 0-19.79-1.768-.442-.111-.774-.443-1.106-.775-1.88-1.437 8.403-3.648 8.071-5.638-3.538-2.211-9.287.442-14.815 1.548l-3.98 1.658c6.412 2.432 8.071 3.096 6.633 7.297-7.075 6.523-6.744 5.086 2.544 1.217 2.653 1.326 3.317 3.758 3.538 6.412.442 2.321 4.422 3.76 8.512 4.201l4.312-3.538 5.639-1.548c3.206 1.99-11.61 12.715-14.926 9.398-2.875-2.985-5.86-5.417-8.845-7.076-3.98-.995-7.076-.442-9.84.442l-6.523 1.77c8.182-.885 15.7-.222 20.785 6.19-.995 5.75-.884 6.634 4.754 9.398 4.865 2.211 12.051-.773 13.931-5.638l1.99-4.975c1.217-2.986 9.84-.885 15.369-1.438 6.633-1.105 11.277-3.98 13.046-6.633 2.1-2.986 11.94-11.941-4.754-4.312-3.76 3.206-3.65 3.87-8.072 1.547-5.417-.22-9.95-.995-12.383-3.095-4.864-.221-5.196-1.437-.331-4.201 4.864-2.654 9.397-4.754 9.95-1.327l.774 3.317c.553 2.211 1.99 2.322 4.423.332.994 1.658 2.985 2.21 5.97 1.88.552-2.434 4.864-4.976 8.292-3.207 2.321 1.216 1.88 4.422 4.754 5.749l7.628.885c.885 1.216.774 3.427.885 6.522 3.648 1.438 5.528-.442 9.619-3.095 3.206-.332 4.2 2.874 4.975 7.96 2.322-.884 5.307-2.211 6.192-5.196 4.422.11 7.186 2.432 6.633 6.854-4.975 6.965-5.749 5.528 3.98 1.548 3.87-1.548 7.297-.553 11.61-.221.11 1.216.883 3.87 2.1 7.74.663-2.323 1.547-4.423 5.749-5.64 3.648-.33 7.407-2.321 8.402.222 2.211 5.639-1.437 12.936-6.855 18.132-7.407 11.609-12.05 13.046-17.91 18.795-5.308 5.086-13.6 9.177-11.168 2.322 1.548-4.312 2.764-9.398 4.754-13.931 4.312-10.392 15.92-13.93 28.193-12.825l2.101-3.427c-11.277.884-25.65.552-30.956 11.167-3.76 7.85-7.187 15.588-9.398 24.544-1.326 5.528-4.422 3.98-7.74 1.88-3.094-4.423-4.864-9.62-5.527-13.6-2.1-1.105-3.095-.22-2.1 2.764l2.211 6.855c-6.855-2.321-16.584-7.297-22.444-3.316-3.759 2.542-7.628 3.758-11.388 3.758-.884-4.533 2.764-7.407 2.432-11.277-1.216-11.72-3.095-22.665-8.07-28.967-2.212-2.763 3.095-6.19 7.407-7.407-5.97-2.212-10.614-2.322-14.815 1.88-6.08 12.161-5.417 25.65 3.317 46.656 3.095 7.407 3.427 17.358 9.84 24.765 5.749 6.744 18.352 10.946 27.308 7.186 11.83-4.975 14.594-19.127 19.68-22.886zm-29.409 16.916c-4.533-1.77-7.297-4.533-8.845-7.96-3.98-6.855-2.874-13.378 3.427-16.363 5.75-2.653 11.72.332 16.032 4.422 3.317 1.99 7.187 1.216 12.051 2.543 2.433.664.332 3.98-2.1 6.081-2.543 4.202-7.518 13.599-12.051 13.488l.995-2.875c1.768-1.437 1.326-2.874 1.99-8.623.22-2.211 2.985-1.438 4.311-.774.885.442 1.106-1.437 2.101-1.99-4.864-3.317-12.714-2.654-17.911-5.196-1.437.663-1.99.22 3.538 3.537-3.317 2.101-1.106 7.74-.885 10.724 0 0 1.88 4.644-2.653 2.986zm91.101-74.075c-.773-2.764-2.764-1.99-2.653-3.427-.774-1.216-.221-1.77 1.769-1.77 1.769.996 2.322 2.875 3.427 4.312.774 7.85.221 18.242-4.754 25.208-4.312 6.081-2.211 9.73-2.764 17.911-2.543-1.99-2.543 1.99-2.764 4.754-.774 1.216-1.548 1.216-2.322.221l.222-18.132c-1.106-5.196.994-6.302 3.759-7.739 3.206-1.77.11-8.513 1.105-13.82.664-3.428 5.639-4.755 4.975-7.518zm-41.017 71.532c2.1-12.493 6.191-21.338 15.478-28.967 3.317-.332 4.533.442 6.744.663-9.287 2.764-16.695 8.292-17.137 19.901-.22 3.76-.773 4.754 1.77 2.654 2.321-8.514 7.075-16.584 14.814-21.117l.443 2.321c-9.288 10.614-17.027 21.891-21.56 33.5-2.985 1.99-1.327-1.326-.553-8.955zm-28.414 44.224c6.966-14.262 3.317-21.559 14.705-28.082 2.543-5.418 1.216-6.413-1.99-6.523-4.644 5.196-7.187 13.93-10.061 19.016 1.548-6.523 6.523-17.468 11.056-23.66-8.955 1.216-20.675 53.51-13.71 39.249zM75.466 88.187l9.73-6.302c0-4.754-1.438-9.508 0-14.262l-7.187-7.961c-4.644 2.1-3.98-4.644-3.649-9.176l-.663-10.061c-.221-3.096 2.654-5.086 6.302-6.524l3.427-5.196v-3.427l2.875-2.764 2.322 4.533 4.533-5.75c2.543-1.878 3.759-4.09 4.643-6.3l4.202-.333c-.553 1.106 0 2.1-.774 3.206-2.433 1.437-4.975 2.322-6.855 4.423-1.548 1.769-2.653 4.201-2.875 6.412-.663 5.086 2.875.332 4.533-3.98l5.75 1.77-8.072 8.291c-2.874 4.643-2.1 9.619 1.216 14.262 4.755 1.658 9.73 3.759 14.483 8.624l7.187.11-2.322 10.946 10.282 10.834 7.519-.552-5.197 5.749v3.98l13.488 3.98 3.207-2.875c2.542-2.21 4.09-2.984 4.643 1.659.553 4.754 3.317 5.528 9.73 2.322l4.422-5.197 7.076-1.326c4.422-2.543 5.97-6.966 5.749-9.508l7.628-3.538.11-6.745-2.21-7.85 4.975 9.288.774 9.176-2.212 4.202 3.317.995 3.98 3.427c-2.764-1.88-6.08-2.433-8.07 1.216l.552 9.398c-7.407 5.528-7.297 7.075-10.06 8.734l-4.533-3.538-1.548 4.754c-3.87 2.322-8.182 2.1-12.936.553l-2.764 2.764c-1.659 1.327-3.206 4.422-4.865-1.77l-1.547-4.422c-1.66-1.437-3.649-2.542-7.74-.994l-.995 3.427c-3.206 1.216-5.97 2.543-8.513 4.644 1.659-1.99 4.09-1.99 2.985-6.524-.774-3.427-1.105-4.864-5.638-4.864-3.207 0-5.197 2.1-7.076 4.311-.11-3.205 2.432-7.296-.221-9.729-1.106-.884-3.98-1.88-4.976-.22l-2.1 3.648c-1.548 2.653-5.196 1.326-7.297 2.21 0-1.658-.221-3.537.553-5.196 1.99-3.316.442-5.196-4.644-5.528l-5.085-.442-2.433-1.658 3.87-3.428-5.086-.442c-6.634.663-9.398 2.986-10.503 5.197l-5.418-.664zm102.38 3.538c1.77-1.216 2.985-1.327 3.538-.442l-.663 4.09c-2.654 1.659-3.649 3.427-4.754 5.528l-2.211 1.106-1.99-.663c-.553-1.438.33-3.428 2.21-4.423l3.87-5.196zm-11.609-.774l5.528-3.649c2.1-.552 4.09-.331 5.307-2.985l-1.548-2.21c0-2.323.884-3.65 2.433-2.433 1.216.332 2.1 1.658 2.874 3.206-.332 1.659-.885 3.538-1.99 4.754l-8.403 8.071c-1.326 1.327-2.321 2.874-1.769 4.865-1.216 2.1-3.317 2.763-4.533 2.763l-1.99-.773c-3.648-6.413-.884-7.518 4.091-11.61zM90.061 60.99c2.322-3.428 4.754-6.192 7.629-5.86 4.754.663 7.74 1.769 9.95 5.086l2.432-.332c2.986-.332 0 3.095-1.769 2.543-.11 2.211 0 4.312.553 6.302-2.21 1.99-3.87.773-5.196.11-1.327-.663-2.322-1.327-3.428-1.658-8.291-2.432-9.397-1.88-10.172-6.191zm63.904 41.902c-.332-1.106.774-2.433-2.322-2.101l.774-2.211c3.649-1.216 4.865.553 4.754 3.206-.11 2.764-1.547 2.764-3.206 1.106zm-24.434-10.835c-1.658-1.548-4.423.332-2.874 1.99 4.09 3.206 7.96 5.749 14.594 4.533l1.326 1.659h2.986l-.332-1.66 2.321-.662-.442-1.77-2.21.111-.332-2.211h-2.322l-.332 2.211c-2.985 2.764-10.724-2.653-12.383-4.201zM100.122 78.79l-.995-2.875c-4.312-2.875-6.08-1.658-4.201 2.432 5.086 4.201 10.393 8.07 15.478 12.272 4.09-.22 3.095.11 2.321-3.096-3.206-2.874-7.628-5.528-12.604-8.734zm-9.287-11.278l7.407 4.09 5.307 1.217 5.97.995c5.64 1.547 8.735 1.658 12.604 6.744 3.87 5.086-5.528.553-7.186-.221l-5.86-3.206c-3.317-1.88-5.86-1.548-8.624-2.654l-8.734-1.769-2.653-2.764c-.442-2.764.332-2.985 1.769-2.432zm27.751 23.55c1.658.994 2.985-.664 2.432-3.76-2.1-2.21-5.086-4.201-8.513-6.08-3.096-.332-2.322 1.326 2.543 4.975l3.538 4.865zM83.317 42.747l-2.543-3.76 1.327-3.206 2.543-2.763.332-2.211 3.759 1.216.663 2.21v4.423c-1.658 1.658-2.875 3.538-2.875 3.538v1.548l-.663 2.211 2.875-.885.331 3.096-.663 6.413h-1.88l-.995-1.659-1.547-.663c0-2.211.331-2.764.331-2.764l.885-1.99-.553-2.433s-1.327-1.658-1.327-2.321zm-2.211 11.499l1.88 1.879 2.21 2.211c-1.547 1.216-2.21 1.216-2.21 1.216L81.106 59l-1.88-2.212 1.88-2.542zm4.312 50.083c4.643-1.106 11.94-2.322 16.916.442 7.518 4.423 12.604 10.282 22.997 13.93-1.327.774-3.428 1.437-6.081.995-5.418-.995-10.614-7.186-17.911-10.392-5.086-2.321-9.287-3.759-15.92-4.975zm52.627 25.54c.995.442 1.99 1.548 3.87 1.99 1.437.331 3.095.22 4.643-.11l4.975-1.438c-2.764 3.317-6.854 4.975-9.287 4.644-2.875-.332-5.307-1.216-5.749-2.433-.663-1.769-.221-3.206 1.548-2.653zm-46.435-19.68c3.427 2.543 6.744 5.197 11.166 7.408 3.317.995 6.855.995 9.84.553 2.21-.332 2.875 1.548-.553 2.432-4.975 1.437-9.176.885-13.267-1.769-4.09-2.543-6.965-5.86-7.186-8.623zM78.785 35.452v7.407l1.659 2.875 1.105 5.086-.885 1.437s.885.442-.442 1.216c-1.437.664.222.664-1.658.664s-1.659 2.542-1.659-.664v-3.538c0-1.659 1.438.885 0-1.88-1.437-2.763-1.437-2.1-.663-4.864.663-2.875-.22-3.76-.22-3.76l2.763-3.98zm81.704 12.272l-1.659-1.99.885-2.875 2.432-.884-3.317-.774-1.99-.775-1.658-2.542-2.432-3.649c-1.438-2.1-1.659 3.317-1.659 3.317l2.1 1.99c1.217 2.1-1.658 3.649.775 4.09 2.432.443 2.432 1.217 2.432 1.217l-.442 2.432-.332 2.875c.774 4.09.332 5.307.332 5.307l-.774 2.432 2.432.885 1.659-2.1.774-2.433 2.432 3.317c.442 2.432 1.658 3.205 1.658 3.205s.885 0 .885 2.433v2.432l2.432 1.659 1.216-6.524-2.432-2.432-1.658-2.874c-2.433-1.216-3.65-3.649-3.65-3.649v-1.99l-.441-2.1zm-5.528 25.65c2.1 0 2.542.773 2.542.773l1.217 3.87 2.985 2.1 1.659 2.544h-3.76v-2.986l-2.542 1.216-1.77-2.542-.331-4.975zm-22.002-4.755l4.201.885 2.986-.442-1.327-4.202-.332-2.985-2.985-.774c-2.1.774-.443 0-2.985.774-2.543.885-4.644-.774-4.644-.774l-.442-2.1-2.1.331-2.544 1.327c0 2.985-6.301 5.86-2.1 5.528 4.201-.442 5.97 0 5.97 0l1.658-2.211 2.101.442 4.643 1.327-2.1 2.874zm-2.543 2.543l2.985.442 2.101 1.327 4.643 1.216.775 4.644h-2.875l-2.543-.442-2.1-.332-2.101-.884 3.759-1.327 3.427-.774-5.086-1.658-2.985-2.212zm2.543-46.878l2.543 2.543-.885 4.644 2.101 1.658 1.769 2.985 2.875-.442-.442-2.1-2.101-.775-.774-4.311v-2.543s0-2.543-2.1-2.543-2.986.884-2.986.884zm-5.528-7.628l2.985 1.326c2.985 1.216 0-1.326 2.985 1.216 2.875 2.544 3.76 2.544 3.76 2.544l3.759-1.659-2.875-2.1c-2.543-.443-5.528-2.101-5.528-2.101s-5.528.332-5.086.774zm-2.543 8.07l-2.543.885-2.875.774c-2.984 1.769-3.869 1.769-3.869 1.769l-3.759.774 3.76-2.543.441-2.1 8.845.442zm2.543-.442l-4.201-4.643-2.985.885-2.986-2.986h-2.1l4.311-.884 5.418 1.769-.773 2.874 3.316 2.985zm0 20.343c-2.985 1.217-3.76 1.66-3.76 1.66l-2.1.883c-2.985 2.432-3.87 3.317-3.87 3.317h-2.984l.884-2.1c2.543-1.217 3.428-5.086 3.428-5.086l4.643-.885s-2.1-1.216 2.1 0c4.202 1.327 1.659 2.211 1.659 2.211zm-23.217 1.217l2.1-.442 4.201-2.101 2.986 1.658 4.643-2.874-5.86 4.643c-2.985 1.216-2.21 1.216-4.311 1.216s-3.76-2.1-3.76-2.1z" fill="#1f1a17"/></svg>